<?xml version="1.0" encoding="iso-8859-1"?>
<!-- Generator: Adobe Illustrator 19.0.0, SVG Export Plug-In . SVG Version: 6.00 Build 0)  -->
<svg version="1.1" id="Capa_1" xmlns="http://www.w3.org/2000/svg" xmlns:xlink="http://www.w3.org/1999/xlink" x="0px" y="0px"
	 viewBox="0 0 512.005 512.005" style="enable-background:new 0 0 512.005 512.005;" xml:space="preserve">
<polygon style="fill:#775436;" points="214.345,345.313 182.425,487.007 215.664,487.007 241.553,372.084 278.952,372.084 
	309.905,487.007 343.621,487.007 305.459,345.313 "/>
<polygon style="opacity:0.1;enable-background:new    ;" points="214.345,345.313 182.425,487.007 198.695,487.007 230.616,345.313 
	"/>
<path style="fill:#A2DFF9;" d="M382.513,175.447l-19.442-19.436c-4.921,4.334-46.244,40.688-68.136,58.603
	c-8.396,10.024-20.513,16.586-33.986,16.586c-8.252,0-15.989-2.473-22.68-6.684h-0.113c-2.665,0-72.982-64.245-79.624-70.319
	l-20.048,20.039l75.126,75.1v95.978h92.519V253.03l77.059-77.033C382.951,175.835,382.723,175.656,382.513,175.447z"/>
<polygon style="opacity:0.1;enable-background:new    ;" points="149.801,162.924 138.484,174.235 213.61,249.335 213.61,345.313 
	229.499,345.313 229.499,242.599 "/>
<g>
	<path style="fill:#08375E;" d="M216.441,499.451c0,2.777-2.273,5.049-5.051,5.049h-47.487c-2.778,0-5.051-2.272-5.051-5.049
		v-12.552c0-2.777,2.272-5.049,5.051-5.049h47.487c2.777,0,5.051,2.272,5.051,5.049L216.441,499.451L216.441,499.451z"/>
	<path style="fill:#08375E;" d="M366.55,499.451c0,2.777-2.272,5.049-5.051,5.049h-47.486c-2.778,0-5.052-2.272-5.052-5.049v-12.552
		c0-2.777,2.273-5.049,5.052-5.049h47.486c2.778,0,5.051,2.272,5.051,5.049V499.451z"/>
</g>
<path style="fill:#F7931E;" d="M285.481,108.718h-13.367c-1.656-3.759-5.419-6.404-9.773-6.404H225.74
	c-5.872,0-10.677,4.803-10.677,10.673v52.482c0,0.074,0.01,0.146,0.011,0.219c0.238-25.508,20.682-38.825,45.874-38.825
	c24.361,0,44.278,12.453,45.784,36.337c0.062-0.659,0.102-1.325,0.102-2v-31.135C306.835,118.324,297.225,108.718,285.481,108.718z"
	/>
<path style="opacity:0.1;enable-background:new    ;" d="M235.937,132.176v-19.189c0-5.87,4.805-10.673,10.677-10.673H225.74
	c-5.872,0-10.677,4.803-10.677,10.673v52.482c0,0.074,0.01,0.146,0.011,0.219C215.225,149.524,223.49,138.261,235.937,132.176z"/>
<g>
	<path style="fill:#FFB98A;" d="M215.063,182.186v-15.317h-4.672c-7.23,0-13.09,5.858-13.09,13.083
		c0,7.226,5.86,13.083,13.09,13.083h5.9C215.497,189.511,215.063,185.877,215.063,182.186z"/>
	<path style="fill:#FFB98A;" d="M311.196,166.869h-4.361v15.317c0,3.691-0.434,7.325-1.229,10.85h5.59
		c7.227,0,13.088-5.857,13.088-13.083C324.284,172.728,318.424,166.869,311.196,166.869z"/>
</g>
<path style="fill:#FFD5B3;" d="M306.835,182.186c0,25.803-20.544,49.013-45.886,49.013l0,0c-25.341,0-45.886-23.21-45.886-49.013
	v-16.053c0-25.802,20.545-39.271,45.886-39.271l0,0c25.342,0,45.886,13.468,45.886,39.271L306.835,182.186L306.835,182.186z"/>
<g style="opacity:0.1;">
	<path d="M235.891,182.186v-16.053c0-22.153,15.15-35.205,35.472-38.456c-3.348-0.535-6.83-0.815-10.414-0.815
		c-25.341,0-45.886,13.468-45.886,39.271v16.053c0,25.803,20.545,49.013,45.886,49.013c3.584,0,7.066-0.479,10.414-1.349
		C251.041,224.568,235.891,204.34,235.891,182.186z"/>
</g>
<g>
	<path style="fill:#FFD5B3;" d="M409.216,148.754l-15.355-15.349c-1.835-1.835-4.838-1.835-6.675,0l-11.349,11.344l-6.008-6.006
		c-1.835-1.834-4.84-1.834-6.676,0l-5.34,5.338c-1.835,1.836-1.835,4.838,0,6.673l24.699,24.691c1.837,1.835,4.84,1.835,6.677,0
		l20.025-20.02C411.052,153.593,411.052,150.589,409.216,148.754z"/>
	<path style="fill:#FFD5B3;" d="M111.665,147.662l15.354-15.349c1.835-1.834,4.838-1.834,6.676,0l11.349,11.346l6.008-6.006
		c1.835-1.835,4.838-1.835,6.675,0l5.341,5.337c1.835,1.836,1.835,4.839,0,6.674l-24.701,24.69c-1.834,1.836-4.839,1.836-6.674,0
		l-20.026-20.018C109.827,152.501,109.827,149.498,111.665,147.662z"/>
</g>
<path style="fill:#EF5050;" d="M260.363,296.565c-0.7,0-1.357-0.271-1.853-0.763l-20.363-20.256
	c-2.457-2.442-3.809-5.694-3.809-9.154s1.352-6.713,3.809-9.155c2.457-2.445,5.726-3.792,9.203-3.792s6.745,1.347,9.204,3.792
	l3.884,3.863l3.887-3.863c2.456-2.445,5.725-3.792,9.202-3.792s6.746,1.347,9.204,3.792c2.458,2.446,3.813,5.697,3.813,9.155
	s-1.355,6.709-3.814,9.154l-20.522,20.262C261.715,296.296,261.058,296.565,260.363,296.565z"/>
<path style="fill:#368C0E;" d="M356.137,305.325c-0.151-0.151-0.272-0.333-0.352-0.535c-7.319-18.413-2.997-39.361,11.017-53.368
	c14.012-14.006,34.967-18.329,53.387-11.012c0.201,0.08,0.384,0.2,0.535,0.351c0.15,0.151,0.271,0.333,0.351,0.534
	c7.32,18.415,2.996,39.362-11.016,53.369c-14.011,14.007-34.968,18.329-53.388,11.011
	C356.47,305.597,356.287,305.476,356.137,305.325z"/>
<path style="fill:#FFC502;" d="M165.649,101.24c-1.206,0-2.297-0.715-2.778-1.82c-9.95-22.843-19.436-32.325-42.288-42.272
	c-1.105-0.481-1.821-1.572-1.821-2.777c0-1.206,0.715-2.296,1.821-2.777c22.852-9.949,32.338-19.431,42.288-42.274
	c0.481-1.105,1.572-1.82,2.778-1.82s2.297,0.714,2.778,1.82c9.951,22.841,19.437,32.323,42.289,42.274
	c1.105,0.481,1.82,1.572,1.82,2.777c0,1.206-0.715,2.296-1.82,2.777c-22.852,9.948-32.338,19.43-42.289,42.272
	C167.946,100.525,166.855,101.24,165.649,101.24L165.649,101.24z"/>
<g style="opacity:0.1;">
	<path d="M135.713,62.354c21.396-9.315,31.074-18.222,40.387-38.066c-2.676-4.287-5.16-9.2-7.672-14.968
		c-0.481-1.105-1.572-1.82-2.778-1.82s-2.297,0.715-2.778,1.82c-9.95,22.842-19.436,32.324-42.288,42.274
		c-1.106,0.481-1.821,1.572-1.821,2.777c0,1.206,0.716,2.296,1.821,2.777c5.144,2.239,9.606,4.456,13.553,6.806
		C134.433,63.252,134.986,62.669,135.713,62.354z"/>
</g>
<path style="fill:#FFC502;" d="M133.084,298.962c-1.163,0-2.221-0.672-2.715-1.725c-4.974-10.591-10.228-15.844-20.826-20.818
	c-1.053-0.494-1.725-1.553-1.725-2.716s0.672-2.222,1.725-2.716c10.597-4.974,15.852-10.227,20.826-20.819
	c0.494-1.052,1.552-1.725,2.715-1.725s2.221,0.672,2.715,1.725c4.975,10.592,10.23,15.845,20.826,20.819
	c1.053,0.495,1.725,1.553,1.725,2.716s-0.672,2.222-1.725,2.716c-10.596,4.974-15.852,10.227-20.826,20.819
	C135.305,298.29,134.247,298.962,133.084,298.962L133.084,298.962z"/>
<path d="M78.501,129.272c1.187,0.691,2.485,1.02,3.766,1.02c2.582,0,5.096-1.336,6.489-3.729c1.929-3.313,3.985-6.615,6.113-9.813
	c2.294-3.449,1.358-8.104-2.091-10.398c-3.448-2.293-8.104-1.357-10.398,2.091c-2.293,3.446-4.509,7.004-6.587,10.575
	C73.708,122.597,74.921,127.188,78.501,129.272z"/>
<path d="M65.753,158.639c0.885,0.34,1.794,0.501,2.688,0.501c3.014,0,5.857-1.83,7.002-4.812c1.376-3.581,2.881-7.17,4.472-10.667
	c1.716-3.77,0.051-8.217-3.72-9.933c-3.77-1.717-8.217-0.051-9.933,3.72c-1.716,3.77-3.338,7.639-4.822,11.501
	C59.956,152.814,61.886,157.153,65.753,158.639z"/>
<path d="M95.76,102.318c1.395,1.142,3.077,1.698,4.749,1.698c2.17,0,4.324-0.937,5.806-2.747c2.433-2.97,4.985-5.903,7.587-8.718
	c2.811-3.042,2.624-7.787-0.419-10.598c-3.043-2.812-7.787-2.623-10.598,0.419c-2.803,3.033-5.553,6.193-8.173,9.392
	C92.087,94.968,92.556,99.693,95.76,102.318z"/>
<path d="M57.874,189.648c0.518,0.108,1.034,0.16,1.543,0.16c3.475,0,6.594-2.43,7.333-5.966c0.786-3.758,1.695-7.535,2.702-11.227
	c1.09-3.996-1.265-8.119-5.261-9.209c-3.991-1.092-8.119,1.265-9.21,5.261c-1.086,3.98-2.067,8.054-2.914,12.105
	C51.22,184.826,53.82,188.8,57.874,189.648z"/>
<path d="M57.23,253.429c4.117-0.457,7.083-4.166,6.625-8.283c-0.423-3.808-0.738-7.682-0.934-11.514
	c-0.212-4.137-3.742-7.324-7.874-7.106c-4.136,0.212-7.318,3.738-7.106,7.874c0.212,4.128,0.55,8.301,1.006,12.403
	c0.426,3.835,3.674,6.672,7.445,6.672C56.669,253.476,56.948,253.46,57.23,253.429z"/>
<path d="M64.468,284.59c3.991-1.109,6.328-5.243,5.219-9.234c-1.026-3.692-1.952-7.465-2.754-11.214
	c-0.866-4.05-4.849-6.635-8.902-5.766c-4.05,0.866-6.632,4.852-5.766,8.902c0.864,4.042,1.863,8.11,2.969,12.092
	c0.922,3.319,3.938,5.495,7.223,5.495C63.121,284.866,63.797,284.777,64.468,284.59z"/>
<path d="M80.267,304.227c-1.603-3.481-3.119-7.051-4.505-10.612c-1.502-3.859-5.85-5.771-9.71-4.267
	c-3.86,1.502-5.771,5.85-4.268,9.71c1.495,3.84,3.129,7.69,4.857,11.443c1.265,2.747,3.98,4.365,6.817,4.365
	c1.049,0,2.116-0.222,3.132-0.689C80.354,312.444,81.999,307.989,80.267,304.227z"/>
<path d="M55.035,221.512c0.12,0.006,0.238,0.008,0.356,0.008c3.981,0,7.298-3.131,7.486-7.149c0.179-3.834,0.476-7.71,0.882-11.519
	c0.438-4.119-2.544-7.814-6.663-8.253c-4.114-0.439-7.814,2.545-8.253,6.664c-0.437,4.104-0.757,8.278-0.95,12.407
	C47.701,217.807,50.898,221.318,55.035,221.512z"/>
<path d="M435.146,151.302c1.435,3.554,2.781,7.199,3.999,10.832c1.052,3.137,3.975,5.118,7.11,5.118c0.79,0,1.595-0.126,2.385-0.391
	c3.928-1.316,6.044-5.567,4.728-9.495c-1.315-3.918-2.766-7.849-4.314-11.682c-1.551-3.839-5.921-5.697-9.763-4.145
	C435.451,143.09,433.595,147.461,435.146,151.302z"/>
<path d="M421.383,123.792c1.982,3.279,3.892,6.66,5.674,10.049c1.342,2.552,3.947,4.011,6.644,4.011
	c1.177,0,2.371-0.278,3.484-0.863c3.667-1.928,5.076-6.462,3.147-10.129c-1.92-3.652-3.977-7.295-6.113-10.829
	c-2.143-3.545-6.753-4.682-10.299-2.538C420.376,115.636,419.239,120.247,421.383,123.792z"/>
<path d="M449.994,171.689c-4.039,0.917-6.571,4.934-5.655,8.973c0.849,3.742,1.594,7.555,2.215,11.333
	c0.604,3.676,3.784,6.286,7.392,6.286c0.403,0,0.813-0.033,1.225-0.1c4.087-0.671,6.856-4.529,6.185-8.617
	c-0.669-4.074-1.472-8.185-2.387-12.219C458.051,173.305,454.037,170.772,449.994,171.689z"/>
<path d="M403.415,98.805c2.479,2.926,4.901,5.964,7.2,9.03c1.474,1.965,3.726,3.002,6.007,3.002c1.565,0,3.144-0.488,4.493-1.499
	c3.314-2.484,3.986-7.185,1.502-10.5c-2.477-3.304-5.087-6.578-7.757-9.729c-2.678-3.16-7.41-3.553-10.571-0.874
	C401.129,90.912,400.738,95.645,403.415,98.805z"/>
<path d="M238.203,31.173c0.219,0,0.439-0.01,0.661-0.029c3.815-0.333,7.696-0.556,11.537-0.663c4.14-0.115,7.403-3.565,7.289-7.705
	c-0.115-4.14-3.568-7.395-7.706-7.289c-4.135,0.115-8.315,0.355-12.423,0.713c-4.126,0.36-7.18,3.997-6.82,8.123
	C231.081,28.229,234.356,31.173,238.203,31.173z"/>
<path d="M206.681,36.48c0.606,0,1.223-0.074,1.837-0.229c3.72-0.938,7.514-1.772,11.278-2.482c4.07-0.768,6.747-4.691,5.979-8.761
	c-0.769-4.07-4.688-6.745-8.761-5.979c-4.058,0.766-8.15,1.667-12.161,2.677c-4.017,1.012-6.453,5.088-5.441,9.105
	C200.271,34.212,203.326,36.48,206.681,36.48z"/>
<path d="M269.654,30.888c3.836,0.27,7.702,0.658,11.493,1.153c0.33,0.043,0.657,0.064,0.981,0.064c3.71,0,6.934-2.752,7.427-6.53
	c0.537-4.107-2.358-7.872-6.465-8.408c-4.086-0.533-8.252-0.951-12.384-1.242c-4.146-0.29-7.717,2.824-8.008,6.956
	C262.408,27.012,265.522,30.597,269.654,30.888z"/>
<path d="M300.083,35.478c3.734,0.874,7.489,1.872,11.16,2.967c0.716,0.213,1.438,0.315,2.147,0.315c3.23,0,6.213-2.104,7.184-5.358
	c1.185-3.969-1.073-8.147-5.042-9.331c-3.959-1.181-8.007-2.257-12.033-3.199c-4.031-0.942-8.067,1.561-9.011,5.596
	C293.545,30.501,296.05,34.535,300.083,35.478z"/>
<path d="M329.386,44.865c3.55,1.461,7.103,3.049,10.561,4.721c1.052,0.509,2.164,0.75,3.259,0.75c2.787,0,5.463-1.56,6.758-4.237
	c1.804-3.729,0.242-8.214-3.487-10.017c-3.727-1.802-7.556-3.514-11.381-5.088c-3.831-1.575-8.215,0.251-9.79,4.081
	C323.728,38.905,325.556,43.289,329.386,44.865z"/>
<path d="M356.832,58.823c3.271,2.007,6.523,4.139,9.669,6.338c1.309,0.915,2.808,1.354,4.291,1.354c2.366,0,4.694-1.117,6.153-3.203
	c2.374-3.395,1.546-8.071-1.849-10.444c-3.39-2.37-6.896-4.668-10.419-6.831c-3.529-2.167-8.149-1.061-10.315,2.47
	C352.196,52.038,353.302,56.656,356.832,58.823z"/>
<path d="M421.61,337.065c-3.325-2.47-8.022-1.777-10.493,1.547c-2.289,3.082-4.701,6.133-7.167,9.069
	c-2.664,3.171-2.252,7.902,0.919,10.566c1.406,1.181,3.117,1.757,4.82,1.757c2.139,0,4.264-0.91,5.747-2.676
	c2.656-3.163,5.255-6.45,7.722-9.77C425.628,344.233,424.935,339.535,421.61,337.065z"/>
<path d="M390.851,361.793c-2.743,2.677-5.605,5.308-8.505,7.819c-3.132,2.711-3.472,7.448-0.761,10.579
	c1.483,1.713,3.572,2.591,5.673,2.591c1.74,0,3.488-0.602,4.906-1.83c3.125-2.706,6.207-5.539,9.163-8.423
	c2.964-2.893,3.022-7.641,0.13-10.605C398.565,358.959,393.818,358.898,390.851,361.793z"/>
<path d="M367.186,381.478c-3.131,2.21-6.37,4.353-9.626,6.371c-3.521,2.182-4.606,6.805-2.425,10.326
	c1.419,2.29,3.872,3.55,6.382,3.55c1.349,0,2.714-0.363,3.943-1.126c3.51-2.174,7-4.484,10.374-6.865
	c3.384-2.388,4.192-7.067,1.804-10.452C375.251,379.898,370.571,379.089,367.186,381.478z"/>
<path d="M95.324,331.054c-2.134-3.179-4.202-6.466-6.146-9.772c-2.099-3.571-6.697-4.762-10.267-2.663
	c-3.571,2.1-4.763,6.696-2.663,10.267c2.094,3.562,4.322,7.104,6.622,10.529c1.447,2.156,3.818,3.32,6.233,3.32
	c1.438,0,2.891-0.413,4.174-1.274C96.718,339.153,97.634,334.493,95.324,331.054z"/>
<path d="M437.571,309.318c-3.674-1.91-8.203-0.481-10.114,3.195c-1.772,3.409-3.67,6.804-5.639,10.092
	c-2.129,3.553-0.974,8.16,2.579,10.288c1.207,0.723,2.536,1.067,3.848,1.067c2.55,0,5.035-1.3,6.44-3.647
	c2.124-3.545,4.17-7.207,6.08-10.881C442.677,315.757,441.246,311.229,437.571,309.318z"/>
<path d="M455.285,248.023c-4.095-0.655-7.937,2.134-8.589,6.224c-0.605,3.787-1.332,7.604-2.162,11.346
	c-0.896,4.044,1.654,8.049,5.698,8.946c0.547,0.121,1.093,0.179,1.631,0.179c3.439,0,6.54-2.38,7.315-5.878
	c0.895-4.033,1.679-8.147,2.33-12.228C462.162,252.521,459.375,248.676,455.285,248.023z"/>
<path d="M464.12,222.603c-0.021-4.145-0.163-8.328-0.423-12.434c-0.263-4.133-3.797-7.268-7.961-7.01
	c-4.134,0.262-7.271,3.826-7.01,7.96c0.242,3.815,0.375,7.703,0.393,11.556c0.001,0.142,0.006,0.283,0.014,0.424
	c-0.009,0.152-0.014,0.306-0.014,0.461c0,3.851-0.114,7.737-0.34,11.551c-0.244,4.135,2.91,7.685,7.045,7.929
	c0.15,0.009,0.3,0.013,0.449,0.013c3.939,0,7.245-3.074,7.48-7.058c0.242-4.107,0.365-8.292,0.365-12.436
	c0-0.154-0.005-0.308-0.014-0.46C464.116,222.936,464.121,222.77,464.12,222.603z"/>
<path d="M448.901,279.372c-3.93-1.297-8.175,0.837-9.474,4.77c-1.203,3.645-2.535,7.303-3.957,10.872
	c-1.534,3.848,0.343,8.21,4.19,9.744c0.91,0.363,1.85,0.535,2.774,0.535c2.979,0,5.799-1.788,6.969-4.726
	c1.534-3.848,2.97-7.791,4.268-11.721C454.97,284.913,452.835,280.671,448.901,279.372z"/>
<path d="M381.714,76.962c2.906,2.495,5.78,5.115,8.543,7.787c1.456,1.408,3.335,2.109,5.213,2.109c1.961,0,3.921-0.765,5.392-2.286
	c2.88-2.978,2.801-7.726-0.177-10.605c-2.974-2.877-6.069-5.698-9.199-8.385c-3.145-2.699-7.88-2.337-10.576,0.805
	C378.211,69.529,378.571,74.264,381.714,76.962z"/>
<path d="M137.162,375.963c-3.022-2.356-6.017-4.837-8.9-7.375c-3.11-2.737-7.849-2.434-10.585,0.676
	c-2.736,3.109-2.434,7.849,0.676,10.585c3.106,2.733,6.332,5.407,9.588,7.944c1.37,1.068,2.994,1.585,4.605,1.585
	c2.232,0,4.442-0.993,5.92-2.89C141.013,383.223,140.429,378.51,137.162,375.963z"/>
<path d="M159.254,406.979c2.646,0,5.212-1.404,6.578-3.887c1.997-3.629,0.673-8.19-2.956-10.186c-3.363-1.85-6.714-3.827-9.96-5.874
	c-3.504-2.209-8.135-1.162-10.345,2.341c-2.21,3.504-1.162,8.135,2.342,10.345c3.498,2.206,7.109,4.336,10.733,6.33
	C156.793,406.679,158.032,406.979,159.254,406.979z"/>
<path d="M114.456,355.168c-2.616-2.807-5.18-5.728-7.62-8.682c-2.637-3.193-7.365-3.643-10.559-1.005
	c-3.193,2.638-3.643,7.366-1.005,10.559c2.629,3.183,5.391,6.329,8.209,9.354c1.478,1.585,3.48,2.387,5.489,2.387
	c1.831,0,3.666-0.667,5.111-2.013C117.112,362.944,117.28,358.199,114.456,355.168z"/>
<path d="M414.518,143.45l-15.354-15.349c-2.304-2.303-5.372-3.572-8.64-3.572c-3.266,0-6.333,1.268-8.641,3.572l-6.046,6.044
	l-0.706-0.706c-2.304-2.303-5.372-3.571-8.64-3.571c-3.267,0-6.334,1.268-8.641,3.571l-5.342,5.341
	c-4.628,4.631-4.744,12.074-0.374,16.863c-7.067,6.208-14.238,12.469-21.198,18.507c-2.226-7.554-8.673-13.295-16.602-14.516v-29.57
	c0-15.906-12.943-28.847-28.854-28.847h-9.316c-3.337-3.912-8.291-6.404-13.824-6.404h-36.601c-10.023,0-18.177,8.152-18.177,18.173
	v46.6c-7.828,1.082-14.258,6.565-16.696,13.875c-7.442-6.728-14.847-13.455-21.55-19.571c3.784-4.79,3.473-11.781-0.949-16.206
	l-5.342-5.338c-2.305-2.302-5.373-3.57-8.638-3.57c-3.268,0-6.336,1.269-8.639,3.572l-0.706,0.705l-6.051-6.05
	c-2.305-2.3-5.372-3.566-8.637-3.566c-3.267,0-6.335,1.268-8.64,3.571l-15.351,15.347c-2.308,2.305-3.579,5.374-3.579,8.643
	c0,3.27,1.271,6.339,3.576,8.641l20.024,20.016c2.304,2.306,5.373,3.575,8.642,3.575c0.58,0,1.149-0.054,1.713-0.132l69.369,69.344
	v95.301l-13.249,58.808c-0.57-0.417-1.206-0.762-1.905-1.011c-3.617-1.289-7.242-2.706-10.773-4.211
	c-3.81-1.624-8.216,0.148-9.84,3.959c-1.624,3.81,0.148,8.216,3.959,9.84c3.809,1.623,7.717,3.151,11.617,4.542
	c0.833,0.297,1.682,0.438,2.519,0.438c0.476,0,0.943-0.06,1.404-0.149l-12.254,54.393h-13.683c-6.92,0-12.551,5.629-12.551,12.549
	v12.552c0,6.919,5.63,12.549,12.551,12.549h47.487c6.92,0,12.551-5.629,12.551-12.549v-15.06l3.321-14.743
	c0.911-4.041-1.627-8.055-5.668-8.965c-4.04-0.915-8.055,1.627-8.965,5.668l-1.802,7.998h-17.864l27.379-121.537h79.367
	l32.733,121.537h-18.179l-28.068-104.216c-0.882-3.274-3.852-5.549-7.242-5.549h-37.4c-3.507,0-6.546,2.43-7.316,5.852
	l-13.723,60.916c-0.911,4.041,1.627,8.055,5.668,8.965c4.043,0.913,8.055-1.627,8.965-5.668l0.961-4.266
	c0.745,0.329,1.552,0.548,2.409,0.619c4.111,0.339,8.291,0.56,12.424,0.657c0.06,0.001,0.119,0.002,0.178,0.002
	c4.061,0,7.4-3.244,7.495-7.325c0.097-4.141-3.183-7.576-7.323-7.673c-3.838-0.089-7.721-0.294-11.539-0.61
	c-0.139-0.011-0.275-0.009-0.412-0.013l8.212-36.454h25.653l9.514,35.322c-0.227,0.01-0.454,0.026-0.684,0.057
	c-3.795,0.513-7.661,0.918-11.489,1.206c-4.131,0.309-7.229,3.909-6.918,8.039c0.295,3.94,3.583,6.94,7.471,6.94
	c0.187,0,0.378-0.007,0.568-0.021c4.124-0.309,8.288-0.746,12.376-1.298c0.893-0.121,1.725-0.402,2.479-0.798l14.938,55.463v14.958
	c0,6.919,5.631,12.549,12.552,12.549h47.486c6.921,0,12.551-5.629,12.551-12.549v-12.552c0-6.92-5.63-12.549-12.551-12.549h-13.52
	l-15.639-58.067c0.251,0.026,0.502,0.056,0.757,0.056c0.962,0,1.939-0.186,2.883-0.579c3.806-1.586,7.616-3.311,11.326-5.126
	c3.721-1.82,5.262-6.312,3.441-10.033c-1.82-3.72-6.31-5.262-10.033-3.441c-3.441,1.684-6.975,3.283-10.506,4.754
	c-0.548,0.228-1.048,0.52-1.509,0.853l-15.071-55.958V317c0-4.142-3.357-7.5-7.5-7.5s-7.5,3.358-7.5,7.5v20.813h-77.519v-88.478
	c0-1.99-0.791-3.897-2.198-5.304l-69.82-69.795l9.674-9.67c7.226,6.59,20.215,18.408,33.262,30.137
	c31.135,27.991,39.413,34.984,43.183,36.73c7.686,4.606,16.479,7.266,25.737,7.266c15.36,0,29.454-7.292,39.3-18.715
	c6.531-5.351,15.662-13.079,28.64-24.251c13.334-11.479,26.556-23.043,33.853-29.447l9.776,9.772l-71.691,71.667
	c-1.407,1.407-2.197,3.315-2.197,5.304V281c0,4.142,3.357,7.5,7.5,7.5s7.5-3.358,7.5-7.5v-24.863l71.855-71.831
	c0.123,0.003,0.244,0.018,0.367,0.018c3.267,0,6.335-1.268,8.642-3.572l20.023-20.019c2.307-2.304,3.576-5.372,3.576-8.642
	C418.093,148.823,416.823,145.754,414.518,143.45z M208.941,489.35V497h-42.589v-7.65H208.941z M359.05,489.35V497h-42.589v-7.65
	H359.05z M135.028,167.085l-16.093-16.086l11.421-11.418l9.384,9.382c2.929,2.927,7.677,2.928,10.605,0l4.044-4.042l1.407,1.406
	L135.028,167.085z M204.802,179.953c0-2.047,1.112-3.836,2.762-4.808v7.041c0,0.876,0.025,1.746,0.065,2.613
	C205.943,183.837,204.802,182.027,204.802,179.953z M222.563,112.987c0-1.72,1.455-3.173,3.177-3.173h36.601
	c1.722,0,3.177,1.453,3.177,3.173v6.521c-1.5-0.087-3.018-0.145-4.568-0.145c-15.81,0-29.045,4.613-38.386,12.661v-19.037H222.563z
	 M299.335,182.186c0,22.115-17.938,41.513-38.386,41.513s-38.386-19.398-38.386-41.513v-16.053
	c0-23.424,19.829-31.771,38.386-31.771s38.386,8.346,38.386,31.771L299.335,182.186L299.335,182.186z M299.335,132.023
	c-5.158-4.444-11.504-7.841-18.817-9.99v-5.815h4.964c7.639,0,13.854,6.211,13.854,13.847v1.958H299.335z M314.274,184.607
	c0.034-0.804,0.061-1.61,0.061-2.421v-6.85c1.477,1.006,2.449,2.7,2.449,4.616C316.784,181.895,315.785,183.607,314.274,184.607z
	 M385.851,168.179l-20.767-20.76l1.407-1.407l4.043,4.042c2.93,2.928,7.676,2.928,10.605,0l9.383-9.38l11.422,11.417
	L385.851,168.179z"/>
<path d="M252.357,179.344v11.169c0,4.142,3.358,7.5,7.5,7.5h5.321c4.143,0,7.5-3.358,7.5-7.5c0-3.384-2.241-6.245-5.321-7.179
	v-3.991c0-4.142-3.357-7.5-7.5-7.5C255.715,171.844,252.357,175.202,252.357,179.344z"/>
<path d="M244.903,179.545v-6.857c0-4.142-3.358-7.5-7.5-7.5s-7.5,3.358-7.5,7.5v6.857c0,4.142,3.358,7.5,7.5,7.5
	S244.903,183.687,244.903,179.545z"/>
<path d="M284.182,187.045c4.143,0,7.5-3.358,7.5-7.5v-6.857c0-4.142-3.357-7.5-7.5-7.5s-7.5,3.358-7.5,7.5v6.857
	C276.682,183.687,280.04,187.045,284.182,187.045z"/>
<path d="M253.201,202.301c-2.93-2.928-7.677-2.928-10.607,0.001c-2.928,2.93-2.928,7.678,0.001,10.607
	c5.018,5.016,11.607,7.523,18.198,7.523c6.589,0,13.181-2.508,18.197-7.523c2.93-2.928,2.931-7.677,0.003-10.606
	c-2.929-2.93-7.678-2.931-10.606-0.002C264.198,206.487,257.386,206.487,253.201,202.301z"/>
<path d="M260.438,250.644c-3.674-3.042-8.255-4.699-13.089-4.699c-5.474,0-10.621,2.122-14.491,5.972
	c-3.883,3.86-6.021,9.001-6.021,14.475s2.138,10.614,6.02,14.472l20.373,20.265c1.911,1.894,4.444,2.936,7.133,2.936
	c2.684,0,5.212-1.038,7.114-2.92l20.54-20.281c3.886-3.863,6.025-9.003,6.025-14.472c0-5.468-2.139-10.607-6.023-14.473
	c-3.873-3.852-9.021-5.974-14.493-5.974C268.688,245.945,264.107,247.602,260.438,250.644z M279.043,266.392
	c0,1.467-0.554,2.794-1.583,3.817l-17.085,16.869l-16.941-16.851c-1.044-1.038-1.596-2.364-1.596-3.835
	c0-1.472,0.552-2.798,1.599-3.839c1.057-1.052,2.41-1.608,3.913-1.608c1.502,0,2.857,0.557,3.915,1.609l3.884,3.863
	c2.925,2.909,7.651,2.91,10.576,0.002l3.891-3.867c1.057-1.051,2.408-1.607,3.911-1.607c1.503,0,2.856,0.557,3.914,1.608
	C278.489,263.596,279.043,264.923,279.043,266.392z"/>
<path d="M342.94,318.517c1.465,1.465,3.385,2.198,5.305,2.198c1.919,0,3.838-0.732,5.303-2.196l4.44-4.439
	c5.51,1.724,11.212,2.61,17.012,2.61c15.242,0,29.575-5.938,40.361-16.721c16.131-16.126,21.109-40.244,12.677-61.459
	c-0.459-1.146-1.133-2.169-2.02-3.06c-0.877-0.874-1.905-1.549-3.062-2.009c-6.753-2.683-13.852-4.043-21.097-4.043
	c-15.24,0-29.574,5.938-40.36,16.72c-15.115,15.108-20.438,37.231-14.131,57.367l-4.427,4.425
	C340.013,310.838,340.013,315.587,342.94,318.517z M372.104,256.727c7.953-7.951,18.52-12.329,29.756-12.329
	c4.479,0,8.885,0.706,13.126,2.101c4.932,15.013,1.049,31.587-10.23,42.862c-7.952,7.951-18.52,12.329-29.756,12.329
	c-1.47,0-2.931-0.083-4.382-0.235l30.869-30.857c2.929-2.928,2.93-7.677,0.002-10.607c-2.929-2.93-7.677-2.931-10.608-0.002
	l-30.875,30.863C358.702,278.43,362.981,265.845,372.104,256.727z"/>
<path d="M117.59,64.025c1.031,0.449,2.022,0.895,2.993,1.341c-0.967,0.826-1.941,1.647-2.888,2.487
	c-3.098,2.75-3.38,7.49-0.631,10.588c1.482,1.67,3.542,2.521,5.612,2.521c1.77,0,3.547-0.623,4.976-1.891
	c2.26-2.005,4.598-3.957,6.957-5.861c9.487,6.738,15.238,15.091,21.386,29.205c1.674,3.842,5.463,6.324,9.654,6.324
	c4.191,0,7.98-2.482,9.654-6.324c9.146-20.995,17.402-29.248,38.405-38.39c3.844-1.672,6.328-5.462,6.328-9.655
	c0-4.192-2.484-7.982-6.326-9.654c-7.718-3.361-13.711-6.603-18.663-10.398c-0.046-0.681-0.183-1.367-0.427-2.041
	c-1.097-3.034-3.949-4.919-6.997-4.942c-4.655-5.385-8.408-12.03-12.32-21.011C173.63,2.483,169.841,0,165.649,0
	c-4.191,0-7.98,2.482-9.654,6.325c-9.145,20.995-17.401,29.247-38.402,38.39c-3.846,1.672-6.332,5.462-6.332,9.656
	C111.261,58.563,113.746,62.353,117.59,64.025z M165.65,21.016c8.196,15.962,17.396,25.159,33.364,33.354
	c-15.967,8.193-25.167,17.391-33.364,33.354c-8.196-15.963-17.395-25.16-33.362-33.354C148.254,46.176,157.454,36.979,165.65,21.016
	z"/>
<path d="M159.812,283.208c3.669-1.722,6.039-5.453,6.039-9.505c0-4.051-2.369-7.781-6.038-9.505
	c-8.983-4.217-13.008-8.24-17.224-17.217c-1.721-3.668-5.452-6.038-9.504-6.038c-4.051,0-7.782,2.37-9.504,6.037
	c-4.217,8.979-8.241,13.002-17.224,17.218c-3.668,1.722-6.038,5.453-6.038,9.505s2.37,7.783,6.038,9.505
	c8.983,4.216,13.008,8.239,17.224,17.215c1.722,3.669,5.452,6.039,9.504,6.039s7.783-2.37,9.504-6.036
	C146.805,291.447,150.829,287.424,159.812,283.208z M133.085,286.593c-3.464-5.377-7.516-9.427-12.895-12.891
	c5.379-3.463,9.43-7.514,12.894-12.891c3.465,5.377,7.516,9.428,12.895,12.891C140.599,277.166,136.549,281.215,133.085,286.593z"/>
<g>
</g>
<g>
</g>
<g>
</g>
<g>
</g>
<g>
</g>
<g>
</g>
<g>
</g>
<g>
</g>
<g>
</g>
<g>
</g>
<g>
</g>
<g>
</g>
<g>
</g>
<g>
</g>
<g>
</g>
</svg>
