<?xml version="1.0" encoding="iso-8859-1"?>
<!-- Generator: Adobe Illustrator 19.0.0, SVG Export Plug-In . SVG Version: 6.00 Build 0)  -->
<svg version="1.1" id="Capa_1" xmlns="http://www.w3.org/2000/svg" xmlns:xlink="http://www.w3.org/1999/xlink" x="0px" y="0px"
	 viewBox="0 0 512 512" style="enable-background:new 0 0 512 512;" xml:space="preserve">
<path style="fill:#809292;" d="M488.454,424.329H23.546c-8.854,0-16.031-7.177-16.031-16.031V23.546
	c0-8.854,7.177-16.031,16.031-16.031h464.908c8.854,0,16.031,7.177,16.031,16.031v384.751
	C504.485,417.152,497.308,424.329,488.454,424.329z"/>
<path style="fill:#6C8181;" d="M39.577,408.297V23.546c0-8.854,7.177-16.031,16.031-16.031H23.546
	c-8.854,0-16.031,7.177-16.031,16.031v384.751c0,8.854,7.177,16.031,16.031,16.031h32.063
	C46.754,424.329,39.577,417.152,39.577,408.297z"/>
<rect x="7.515" y="55.609" style="fill:#F9F8F6;" width="496.971" height="320.626"/>
<rect x="7.515" y="55.609" style="fill:#F3F2ED;" width="32.063" height="320.626"/>
<rect x="207.906" y="424.329" style="fill:#809292;" width="96.188" height="80.157"/>
<rect x="207.906" y="424.329" style="fill:#6C8181;" width="96.188" height="24.047"/>
<g>
	
		<line style="fill:none;stroke:#000000;stroke-width:15;stroke-linecap:round;stroke-linejoin:round;stroke-miterlimit:10;" x1="328.141" y1="504.485" x2="183.859" y2="504.485"/>
	
		<line style="fill:none;stroke:#000000;stroke-width:15;stroke-linecap:round;stroke-linejoin:round;stroke-miterlimit:10;" x1="272.031" y1="31.562" x2="239.969" y2="31.562"/>
</g>
<polygon style="fill:#43C8CB;" points="223.937,127.75 223.937,256 320.125,191.875 "/>
<path style="fill:#EDEBE3;" d="M432.344,472.423H272.031c-17.708,0-32.063-14.355-32.063-32.063V312.11
	c0-17.708,14.355-32.063,32.063-32.063h24.047v-40.078l64.125,40.078h72.141c17.708,0,32.063,14.355,32.063,32.063v128.25
	C464.407,458.068,450.052,472.423,432.344,472.423z"/>
<path style="fill:#FF66B2;" d="M352.188,352.188c-32.532-60.416-98.236-17.084-56.11,32.063
	c27.884,32.532,56.11,48.094,56.11,48.094s28.225-15.562,56.11-48.094C450.424,335.104,384.719,291.772,352.188,352.188z"/>
<path style="fill:#FF3399;" d="M317.764,376.235c-18.751-21.876-16.129-42.59-4.588-53.526
	c-25.666-0.891-44.948,29.049-17.097,61.541c27.884,32.532,56.11,48.094,56.11,48.094s6.622-3.657,16.605-11.107
	C359.434,415.241,338.509,400.438,317.764,376.235z"/>
<g>
	
		<line style="fill:none;stroke:#000000;stroke-width:15;stroke-linecap:round;stroke-linejoin:round;stroke-miterlimit:10;" x1="95.687" y1="328.141" x2="239.969" y2="328.141"/>
	
		<line style="fill:none;stroke:#000000;stroke-width:15;stroke-linecap:round;stroke-linejoin:round;stroke-miterlimit:10;" x1="127.75" y1="312.11" x2="127.75" y2="344.172"/>
</g>
<path d="M488.454,0H23.546C10.563,0,0,10.563,0,23.546v384.751c0,12.983,10.563,23.546,23.546,23.546h176.845v65.127h-16.532
	c-4.15,0-7.515,3.365-7.515,7.515s3.365,7.515,7.515,7.515h144.282c4.151,0,7.515-3.365,7.515-7.515s-3.364-7.515-7.515-7.515
	h-16.532v-17.033h120.736c21.823,0,39.577-17.755,39.577-39.577v-8.517h16.532c12.983,0,23.546-10.563,23.546-23.546V23.546
	C512,10.563,501.437,0,488.454,0z M23.546,15.029h464.908c4.696,0,8.517,3.82,8.517,8.517v24.548H15.029V23.546
	C15.029,18.85,18.85,15.029,23.546,15.029z M15.029,408.297V383.75h48.261c4.15,0,7.515-3.365,7.515-7.515s-3.365-7.515-7.515-7.515
	H15.029V63.123h481.941V368.72h-25.049V312.11c0-21.823-17.755-39.577-39.577-39.577h-69.986l-18.549-11.594
	c15.451-19.632,23.909-43.951,23.909-69.064c0-61.601-50.117-111.718-111.718-111.718s-111.718,50.117-111.718,111.718
	c0,53.391,38.036,99.193,89.653,109.537c-0.958,3.406-1.481,6.991-1.481,10.698v8.517h-97.19v-8.517c0-4.15-3.365-7.515-7.515-7.515
	c-4.15,0-7.515,3.365-7.515,7.515v8.517H95.687c-4.15,0-7.515,3.365-7.515,7.515s3.365,7.515,7.515,7.515h24.548v8.517
	c0,4.15,3.365,7.515,7.515,7.515c4.15,0,7.515-3.365,7.515-7.515v-8.517h97.19v33.065H99.695c-4.15,0-7.515,3.365-7.515,7.515
	s3.365,7.515,7.515,7.515h132.759v33.065H23.546C18.85,416.814,15.029,412.994,15.029,408.297z M241.145,287.404
	c-46.809-7.217-81.834-47.866-81.834-95.53c0-53.314,43.375-96.689,96.689-96.689s96.689,43.375,96.689,96.689
	c0,22.283-7.705,43.832-21.724,61.036l-30.903-19.315c-4.919-3.076-11.497,0.591-11.497,6.372v32.564h-16.532
	C259.549,272.532,248.404,278.348,241.145,287.404z M296.579,496.971h-81.159v-65.127h17.033v8.517
	c0,21.823,17.755,39.577,39.577,39.577h24.548V496.971z M456.892,440.36c0,13.535-11.012,24.548-24.548,24.548H272.031
	c-13.536,0-24.548-11.013-24.548-24.548V312.11c0-13.535,11.012-24.548,24.548-24.548h24.047c4.151,0,7.515-3.365,7.515-7.515
	v-26.52l52.628,32.892c1.193,0.746,2.574,1.142,3.983,1.142h72.141c13.536,0,24.548,11.013,24.548,24.548V440.36z M488.454,416.814
	h-16.532V383.75h25.049v24.548C496.971,412.994,493.15,416.814,488.454,416.814z"/>
<path d="M239.969,39.076h32.063c4.151,0,7.515-3.365,7.515-7.515s-3.364-7.515-7.515-7.515h-32.063c-4.15,0-7.515,3.365-7.515,7.515
	S235.819,39.076,239.969,39.076z"/>
<path d="M327.64,191.875c0-2.513-1.255-4.859-3.347-6.252l-96.188-64.125c-4.905-3.27-11.683,0.37-11.683,6.252V256
	c0,5.874,6.773,9.528,11.683,6.252l96.188-64.125C326.384,196.734,327.64,194.388,327.64,191.875z M231.452,241.959V141.79
	l75.126,50.084L231.452,241.959z"/>
<path d="M393.963,315.199c-15.651-0.667-30.417,7.582-41.776,22.941c-11.357-15.359-26.119-23.605-41.776-22.941
	c-14.366,0.602-26.777,8.996-32.39,21.905c-6.897,15.865-2.397,34.833,12.351,52.038c28.444,33.184,56.985,49.122,58.187,49.784
	c2.236,1.233,5.02,1.233,7.256,0c1.201-0.662,29.744-16.6,58.187-49.784c14.748-17.205,19.249-36.173,12.351-52.038
	C420.741,324.194,408.33,315.801,393.963,315.199z M402.592,379.36c-20.859,24.335-42.106,38.971-50.404,44.209
	c-8.301-5.24-29.547-19.876-50.404-44.209c-10.855-12.665-14.492-25.883-9.979-36.264c3.298-7.586,10.669-12.522,19.237-12.881
	c0.356-0.015,0.712-0.022,1.067-0.022c12.538,0,24.681,9.251,33.461,25.558c2.784,5.169,10.448,5.169,13.233,0
	c9.031-16.77,21.647-26.086,34.529-25.536c8.568,0.359,15.938,5.295,19.237,12.881C417.085,353.477,413.448,366.695,402.592,379.36z
	"/>
<g>
</g>
<g>
</g>
<g>
</g>
<g>
</g>
<g>
</g>
<g>
</g>
<g>
</g>
<g>
</g>
<g>
</g>
<g>
</g>
<g>
</g>
<g>
</g>
<g>
</g>
<g>
</g>
<g>
</g>
</svg>
