<svg height="452pt" viewBox="-1 0 452 452.00236" width="452pt" xmlns="http://www.w3.org/2000/svg"><path d="m141.582031 325.390625c46.605469 39.117187 114.128907 40.597656 162.402344 3.558594 48.273437-37.035157 64.332031-102.636719 38.621094-157.78125-25.710938-55.144531-86.285157-85.019531-145.6875-71.851563-59.402344 13.167969-101.675781 65.839844-101.675781 126.683594-.082032 38.371094 16.898437 74.789062 46.339843 99.390625zm302.519531-131.679687v64.582031l-47.859374 4.609375c-4.53125 20.976562-12.9375 40.925781-24.789063 58.820312l30.558594 36.898438-45.550781 45.550781-36.910157-30.5625c-17.9375 11.761719-37.867187 20.164063-58.808593 24.800781l-4.609376 47.859375h-62.261718l-4.609375-47.859375c-20.945313-4.636718-40.871094-13.039062-58.808594-24.800781l-36.910156 30.5625-45.550781-45.550781 30.558593-36.898438c-11.851562-17.894531-20.257812-37.84375-24.789062-58.820312l-47.859375-4.609375v-64.582031l47.859375-4.609376c4.636719-20.945312 13.035156-40.875 24.789062-58.820312l-30.558593-36.898438 45.550781-45.550781 36.910156 30.558594c17.886719-11.859375 37.832031-20.269531 58.808594-24.800781l4.609375-47.859375h62.261718l4.609376 47.859375c20.976562 4.53125 40.921874 12.941406 58.808593 24.800781l36.910157-30.558594 45.550781 45.550781-30.558594 36.898438c11.75 17.945312 20.148437 37.875 24.789063 58.820312zm0 0" fill="#00efd1"/><path d="m225 96.242188c54.550781 0 103.273438 34.113281 121.933594 85.371093 18.660156 51.257813 3.269531 108.710938-38.511719 143.777344-.351563-21.621094-17.976563-38.960937-39.601563-38.960937h-20.390624v-11c5.269531-3.902344 10.226562-8.210938 14.820312-12.886719 10.191406-10.183594 19.160156-21.980469 24.75-35.332031 6.691406-15.96875 7.460938-33.550782.941406-49.710938-3.851562-9.539062-12.089844-18.9375-23.621094-16.199219l-.328124-.988281c-4.351563-10.675781-12.351563-19.460938-22.570313-24.792969-10.804687-5.398437-23.265625-6.449219-34.820313-2.929687-18.808593 5.429687-35.300781 18.113281-44.089843 35.761718-5.027344 10.207032-7.402344 21.519532-6.898438 32.890626 1.226563 29.578124 18.128907 58.410156 44.667969 72v13.1875h-20.101562c-21.621094 0-39.25 17.339843-39.597657 38.960937-41.78125-35.066406-57.171875-92.519531-38.511719-143.777344 18.660157-51.257812 67.382813-85.371093 121.929688-85.371093zm0 0" fill="#f4b844"/><path d="m268.820312 286.429688c21.625 0 39.25 17.339843 39.601563 38.960937-48.242187 40.492187-118.597656 40.492187-166.839844 0 .347657-21.621094 17.976563-38.960937 39.597657-38.960937h20.101562v.75c0 13.023437 10.554688 23.578124 23.574219 23.578124s23.574219-10.554687 23.574219-23.578124v-.75zm0 0" fill="#00acea"/><path d="m288.941406 177.5c6.519532 16.160156 5.75 33.742188-.941406 49.710938-5.589844 13.351562-14.558594 25.148437-24.75 35.332031-4.59375 4.675781-9.550781 8.984375-14.820312 12.886719v-9.207032c14.71875-8.65625 23.753906-24.457031 23.742187-41.53125v-19.410156l.070313-4.570312c.234374-10.964844-5.105469-21.304688-14.179688-27.460938-3.597656-2.425781-7.695312-4.011719-11.992188-4.640625-23.449218 42.933594-65.609374 47.050781-67.257812 47.203125h-.101562c-.644532 0-1.167969.523438-1.167969 1.167969v8.3125c-.007813 16.9375 9.046875 32.585937 23.738281 41.019531v6.929688c-26.539062-13.589844-43.441406-42.421876-44.667969-72-.503906-11.371094 1.871094-22.683594 6.898438-32.890626 8.789062-17.648437 25.28125-30.332031 44.089843-35.761718 11.554688-3.519532 24.015626-2.46875 34.820313 2.929687 10.21875 5.332031 18.21875 14.117188 22.570313 24.792969l.328124.988281c11.53125-2.738281 19.769532 6.660157 23.621094 16.199219zm0 0" fill="#4b5d63"/><path d="m201.28125 266.3125c-14.691406-8.433594-23.746094-24.082031-23.738281-41.019531v-8.3125c0-.644531.523437-1.167969 1.167969-1.167969h.101562c1.648438-.152344 43.808594-4.269531 67.257812-47.203125 4.296876.628906 8.394532 2.214844 11.992188 4.640625 9.074219 6.15625 14.414062 16.496094 14.179688 27.460938l-.070313 4.570312v19.410156c.011719 17.074219-9.023437 32.875-23.742187 41.53125-7.042969 4.128906-15.050782 6.332032-23.21875 6.378906-8.394532.074219-16.65625-2.097656-23.929688-6.289062zm0 0" fill="#f7caa5"/><path d="m248.429688 286.429688v.75c0 13.023437-10.554688 23.578124-23.574219 23.578124s-23.574219-10.554687-23.574219-23.578124v-20.867188c7.273438 4.191406 15.535156 6.363281 23.929688 6.289062 8.167968-.046874 16.175781-2.25 23.21875-6.378906zm0 0" fill="#edb288"/><g fill="#083863"><path d="m444.625 187.738281-43.53125-4.195312c-4.613281-18.648438-12.125-36.460938-22.261719-52.78125l27.800781-33.554688c1.972657-2.382812 1.8125-5.878906-.375-8.066406l-45.554687-45.550781c-2.191406-2.1875-5.683594-2.351563-8.070313-.378906l-33.515624 27.75c-16.296876-10.203126-34.132813-17.714844-52.816407-22.25l-4.199219-43.417969c-.308593-3.050781-2.90625-5.3515628-5.96875-5.292969h-62.261718c-3.0625-.0585938-5.664063 2.242188-5.972656 5.292969l-4.199219 43.484375c-18.683594 4.523437-36.519531 12.027344-52.816407 22.21875l-33.515624-27.769532c-2.382813-1.976562-5.878907-1.816406-8.070313.371094l-45.546875 45.546875c-2.1875 2.1875-2.351562 5.679688-.378906 8.066407l27.789062 33.550781c-10.140625 16.320312-17.660156 34.132812-22.277344 52.78125l-43.507812 4.195312c-3.066406.300781-5.3984375 2.890625-5.375 5.972657v64.582031c-.0195312 3.078125 2.308594 5.667969 5.375 5.972656l43.53125 4.199219c4.527344 18.6875 12.035156 36.523437 22.226562 52.824218l-27.757812 33.511719c-1.972656 2.382813-1.8125 5.878907.375 8.066407l45.550781 45.550781c2.1875 2.1875 5.683594 2.351562 8.066407.378906l33.5625-27.796875c16.316406 10.148438 34.121093 17.671875 52.773437 22.289062l4.199219 43.421876c.308594 3.050781 2.90625 5.351562 5.96875 5.289062h62.261718c3.0625.0625 5.660157-2.238281 5.96875-5.289062l4.203126-43.488282c18.648437-4.605468 36.457031-12.113281 52.773437-22.25l33.5625 27.796875c2.382813 1.976563 5.875 1.816407 8.066406-.367187l45.550781-45.546875c2.1875-2.1875 2.351563-5.683594.378907-8.066407l-27.753907-33.511718c10.199219-16.300782 17.710938-34.136719 22.242188-52.824219l43.5-4.195313c3.066406-.300781 5.398438-2.886718 5.375-5.964843v-64.582031c.023438-3.082032-2.308594-5.671876-5.375-5.972657zm-6.625 65.101563-42.382812 4.089844c-2.59375.25-4.726563 2.15625-5.265626 4.707031-4.375 20.238281-12.484374 39.484375-23.90625 56.757812-1.464843 2.207031-1.3125 5.113281.378907 7.152344l27.078125 32.695313-37.824219 37.824218-32.699219-27.078125c-2.015625-1.667969-4.882812-1.839843-7.082031-.417969-17.335937 11.359376-36.589844 19.484376-56.824219 23.976563-2.53125.492187-4.441406 2.585937-4.699218 5.15625l-4.09375 42.296875h-51.359376l-4.085937-42.296875c-.253906-2.582031-2.160156-4.699219-4.699219-5.222656-20.234375-4.480469-39.484375-12.59375-56.824218-23.941407-2.203126-1.417968-5.070313-1.238281-7.082032.433594l-32.699218 27.085938-37.828126-37.820313 27.074219-32.691406c1.691407-2.042969 1.84375-4.949219.375-7.152344-11.429687-17.273437-19.539062-36.519531-23.917969-56.761719-.53125-2.542968-2.652343-4.449218-5.242187-4.703124l-42.390625-4.089844v-53.679688l42.386719-4.085937c2.59375-.253907 4.722656-2.15625 5.265625-4.707031 4.488281-20.234376 12.605468-39.488282 23.953125-56.835938 1.417969-2.199219 1.242187-5.0625-.425781-7.078125l-27.078126-32.691406 37.824219-37.824219 32.699219 27.074219c2.042969 1.691406 4.949219 1.839843 7.15625.371093 17.265625-11.433593 36.511719-19.546874 56.75-23.925781 2.53125-.496093 4.441406-2.589843 4.699219-5.15625l4.089843-42.300781h51.359376l4.089843 42.300781c.253907 2.582031 2.160157 4.699219 4.699219 5.222657 20.238281 4.367187 39.480469 12.472656 56.75 23.894531 2.207031 1.464843 5.117188 1.308593 7.15625-.390625l32.699219-27.082032 37.824219 37.820313-27.074219 32.691406c-1.667969 2.015625-1.839844 4.878907-.421875 7.078125 11.351562 17.34375 19.472656 36.597656 23.96875 56.832032.527344 2.546874 2.648437 4.453124 5.238281 4.707031l42.390625 4.085937zm0 0"/><path d="m225 90.242188c-74.855469 0-135.757812 60.898437-135.757812 135.757812 0 74.980469 60.78125 135.761719 135.757812 135.761719 74.980469 0 135.761719-60.78125 135.761719-135.761719 0-74.855469-60.902344-135.757812-135.761719-135.757812zm-77.25 232.230468c1.695312-16.921875 16.132812-30.472656 33.429688-30.472656h14.5625c1.039062 6.011719 3.902343 11.554688 8.199218 15.878906 7.835938 7.738282 19.3125 10.5 29.808594 7.167969s18.277344-12.207031 20.214844-23.046875h14.855468c17.300782 0 31.738282 13.550781 33.429688 30.472656-45.175781 36.097656-109.324219 36.097656-154.5 0zm56.53125-61.359375h.222656c-12.753906-7.410156-20.570312-21.074219-20.503906-35.820312v-4.117188c11-2.113281 44.332031-11 65.292969-45.730469 1.96875.683594 3.839843 1.625 5.558593 2.800782 7.367188 5.023437 11.652344 13.464844 11.363282 22.375l-.214844 4.660156v19.410156c.027344 14.925782-7.839844 28.753906-20.6875 36.351563-12.671875 7.386719-28.335938 7.414062-41.03125.070312zm73.71875-55.738281.15625-4.574219c.320312-13.011719-6.023438-25.285156-16.820312-32.550781-4.335938-2.933594-9.285157-4.84375-14.46875-5.582031-2.464844-.335938-4.882813.882812-6.070313 3.066406-21.253906 38.910156-58.574219 43.710937-62.089844 44.078125-3.820312.152344-6.808593 3.347656-6.707031 7.167969v8.3125c-.074219 4.050781.316406 8.101562 1.167969 12.066406-6.273438-11.136719-9.851563-23.589844-10.445313-36.359375-.480468-10.355469 1.65625-20.664062 6.214844-29.972656 7.769531-15.59375 22.460938-27.5 40.359375-32.667969 10.632813-3.074219 21.140625-2.207031 30.417969 2.511719 8.898437 4.640625 15.867187 12.28125 19.667968 21.570312l.25.761719c.984376 2.945313 4.054688 4.65625 7.078126 3.9375 1.761718-.421875 10.859374-1.78125 16.667968 12.609375 5.695313 14.113281 5.371094 30.148438-.910156 45.148438-1.582031 3.675781-3.414062 7.242187-5.492188 10.664062.707032-3.582031 1.050782-7.222656 1.023438-10.871094zm-71 81.046875v-10.800781c6 1.960937 11.859375 3.382812 17.882812 3.382812h.371094c5.742188-.113281 11.417969-1.269531 16.746094-3.417968v11.59375c0 9.667968-7.832031 17.5-17.5 17.5-9.664062 0-17.5-7.832032-17.5-17.5zm105.617188 26.757813c-5.53125-18.976563-23.164063-33.179688-43.796876-33.179688h-14.820312v-1.574219c5-3.222656 8.601562-6.972656 13.277344-11.640625 11.910156-11.898437 20.78125-24.433594 26.148437-37.257812 7.511719-17.929688 7.910157-37.121094 1.027344-54.1875-5.195313-12.875-14.71875-20.339844-25.242187-20.339844h-.128907c-11.089843-23.808594-38.027343-35.808594-63.144531-28.132812-21.113281 6.09375-38.535156 20.234374-47.800781 38.828124-5.523438 11.101563-8.160157 23.414063-7.664063 35.804688 1.300782 31.320312 18.523438 60.445312 44.523438 75.300781v3.199219h-13.816406c-20.628907 0-38.265626 14.203125-43.796876 33.179688-23.164062-23.136719-36.171874-54.542969-36.144531-87.285157 0-68.242187 55.519531-123.707031 123.761719-123.707031 68.238281 0 123.757812 55.4375 123.757812 123.679688.027344 32.75-12.976562 64.164062-36.140624 87.3125zm0 0"/></g></svg>