<svg height="512pt" viewBox="0 -16 512 512" width="512pt" xmlns="http://www.w3.org/2000/svg"><path d="m53.863281 155.257812-14.121093-26.453124 212.800781-112.984376 14.121093 26.453126zm0 0" fill="#f4d7af"/><path d="m53.863281 155.257812-14.121093-26.453124 212.800781-112.984376 14.121093 26.453126zm0 0" fill="#766e6e"/><path d="m391 480h-361v-240h361zm0 0" fill="#5b5555"/><path d="m432.453125 300h-71.453125v120h71.453125l28.78125-62.472656zm0 0" fill="#463f3f"/><path d="m512 459.273438v-198.546876l-79.546875 39.273438v120zm0 0" fill="#5b5555"/><path d="m211 240h180v240h-180zm0 0" fill="#463f3f"/><path d="m90 300 30 60-30 60h241l-30-60 30-60zm0 0" fill="#766e6e"/><path d="m105 300h-15v120h15c33 0 60-27 60-60s-27-60-60-60zm0 0" fill="#faecd8"/><path d="m75 270c-41.351562 0-75-33.648438-75-75 0-27.6875 15.203125-53.101562 39.683594-66.300781 10.632812-5.695313 22.835937-8.699219 35.316406-8.699219 41.351562 0 75 33.648438 75 75s-33.648438 75-75 75zm0 0" fill="#766e6e"/><path d="m75 240c-24.8125 0-45-20.1875-45-45 0-16.65625 9.171875-31.933594 23.921875-39.886719 6.210937-3.339843 13.519531-5.113281 21.078125-5.113281 24.8125 0 45 20.1875 45 45s-20.1875 45-45 45zm0 0" fill="#faecd8"/><path d="m60 180h30v30h-30zm0 0" fill="#766e6e"/><path d="m316 0c-22.199219 0-44.097656 5.398438-63.300781 15.898438-4.800781 2.703124-9.597657 5.402343-14.101563 8.703124-1.5.898438-2.996094 2.097657-4.496094 3.597657-3.003906 1.800781-5.703124 4.199219-8.402343 6.601562-5.398438 4.5-10.199219 9.898438-14.699219 15.296875-19.199219 23.402344-30 53.402344-30 84.902344 0 32.101562 11.101562 61.5 30 84.601562 24.601562 30.597657 62.699219 50.398438 105 50.398438 74.398438 0 135-60.601562 135-135 0-74.402344-60.601562-135-135-135zm0 0" fill="#766e6e"/><path d="m451 135c0 74.398438-60.601562 135-135 135-42.300781 0-80.398438-19.800781-105-50.398438v-169.503906c4.5-5.398437 9.300781-10.796875 14.699219-15.296875 2.703125-2.402343 5.402343-4.800781 8.402343-6.601562 1.5-1.5 3-2.699219 4.5-3.597657 4.5-3.300781 9.296876-6 14.097657-8.703124 19.203125-10.5 41.101562-15.898438 63.300781-15.898438 74.398438 0 135 60.597656 135 135zm0 0" fill="#5b5555"/><path d="m316 240c-57.890625 0-105-47.109375-105-105 0-38.890625 21.328125-74.398438 55.648438-92.664062 15.105468-8.089844 32.15625-12.335938 49.351562-12.335938 57.890625 0 105 47.109375 105 105s-47.109375 105-105 105zm0 0" fill="#f4d7af"/><path d="m316 270h-241v-30h211zm0 0" fill="#766e6e"/><g fill="#463f3f"><path d="m347.816406 145.601562 31.816406 31.816407-21.210937 21.210937-31.816406-31.816406zm0 0"/><path d="m358.421875 71.363281 21.210937 21.210938-31.816406 31.816406-21.210937-21.210937zm0 0"/><path d="m273.578125 71.363281 31.816406 31.816407-21.210937 21.210937-31.816406-31.816406zm0 0"/><path d="m284.183594 145.601562 21.210937 21.210938-31.816406 31.816406-21.210937-21.210937zm0 0"/></g><path d="m211 270h105l-30-30h-75zm0 0" fill="#5b5555"/><path d="m211 71.96875 55.664062-29.695312-14.121093-26.453126-41.542969 22.160157zm0 0" fill="#5b5555"/><path d="m331 420-30-60 30-60h-120v120zm0 0" fill="#5b5555"/><path d="m316 300c-33 0-60 27-60 60s27 60 60 60h15v-120zm0 0" fill="#f4d7af"/><path d="m316 180c-24.8125 0-45-20.1875-45-45s20.1875-45 45-45 45 20.1875 45 45-20.1875 45-45 45zm0 0" fill="#5b5555"/></svg>